# xmcd
#
# Track frame offsets:
# 150
# 4631
# 22752
# 41159
# 62179
# 75872
# 95351
# 113192
# 132446
# 153247
# 169444
# 191354
# 210090
#
# Disc length: 2929 seconds
#
# Revision: 1
# Processed by: cddbd v1.5.1PL2 Copyright (c) Steve Scherf et al.
# Submitted via: CedeCatalogueitor 2.6.0.6 http://personales.ya.com/cdcatalogueitor
#
DISCID=960b6f0d
DTITLE=Primal Fear - Primal Fear
DYEAR=2002
DGENRE=Speed/Power metal
TTITLE0=Countdown To Insanity
TTITLE1=Black Sun
TTITLE2=Armageddon
TTITLE3=Lightyears From Home
TTITLE4=Revolution
TTITLE5=Fear
TTITLE6=Mind Control
TTITLE7=Magic Eye
TTITLE8=Mind Machine
TTITLE9=Silence
TTITLE10=We Go Down
TTITLE11=Cold Day In Hell
TTITLE12=Controlled
EXTD=
EXTT0=
EXTT1=
EXTT2=
EXTT3=
EXTT4=
EXTT5=
EXTT6=
EXTT7=
EXTT8=
EXTT9=
EXTT10=
EXTT11=
EXTT12=
PLAYORDER=
